<?xml version="1.0" encoding="UTF-8" standalone="no" ?>
<!DOCTYPE svg PUBLIC "-//W3C//DTD SVG 1.1//EN" "http://www.w3.org/Graphics/SVG/1.1/DTD/svg11.dtd">
<svg xmlns="http://www.w3.org/2000/svg" xmlns:xlink="http://www.w3.org/1999/xlink" version="1.1" width="1080" height="1080" viewBox="0 0 1080 1080" xml:space="preserve">
<desc>Created with Fabric.js 5.2.4</desc>
<defs>
</defs>
<g transform="matrix(1 0 0 1 540 540)" id="2867e6eb-405d-4e3a-b41e-063cd6d1781d"  >
<rect style="stroke: none; stroke-width: 1; stroke-dasharray: none; stroke-linecap: butt; stroke-dashoffset: 0; stroke-linejoin: miter; stroke-miterlimit: 4; fill: rgb(255,255,255); fill-rule: nonzero; opacity: 1; visibility: hidden;" vector-effect="non-scaling-stroke"  x="-540" y="-540" rx="0" ry="0" width="1080" height="1080" />
</g>
<g transform="matrix(1 0 0 1 540 540)" id="80b0c619-2aa9-44be-867c-345853cf4f29"  >
</g>
<g transform="matrix(22.5 0 0 22.5 540 540)"  >
<path style="stroke: none; stroke-width: 1; stroke-dasharray: none; stroke-linecap: butt; stroke-dashoffset: 0; stroke-linejoin: miter; stroke-miterlimit: 4; fill: rgb(241,100,30); fill-rule: nonzero; opacity: 1;"  transform=" translate(-24.09, -12.1)" d="M 6.547 3.125 L 6.547 9.133 C 6.547 9.133 8.664 9.133 9.797 9.046999999999999 C 10.688 8.890999999999998 10.852 8.805 11.016 7.913999999999999 L 11.344 6.608999999999999 L 12.312999999999999 6.608999999999999 L 12.149 9.460999999999999 L 12.235 12.383 L 11.258 12.383 L 11.015999999999998 11.241999999999999 C 10.773999999999997 10.43 10.445999999999998 10.264999999999999 9.796999999999999 10.187 C 8.985 10.100999999999999 6.546999999999999 10.100999999999999 6.546999999999999 10.100999999999999 L 6.546999999999999 15.139999999999999 C 6.546999999999999 16.108999999999998 7.038999999999999 16.523 8.171999999999999 16.523 L 11.585999999999999 16.523 C 12.640999999999998 16.523 13.694999999999999 16.437 14.351999999999999 14.898 L 15.235 12.945 L 16.055 12.945 C 15.969 13.351 15.562999999999999 16.929000000000002 15.485 17.734 C 15.485 17.734 12.399 17.656000000000002 11.102 17.656000000000002 L 5.25 17.656000000000002 L 1.758 17.734 L 1.758 16.851000000000003 L 2.891 16.601000000000003 C 3.711 16.437 3.9530000000000003 16.195000000000004 3.9530000000000003 15.546000000000003 C 3.9530000000000003 15.546000000000003 4.039000000000001 13.351000000000003 4.039000000000001 9.694000000000003 C 4.039000000000001 6.046000000000003 3.9530000000000007 3.8500000000000023 3.9530000000000007 3.8500000000000023 C 3.9530000000000007 3.1230000000000024 3.7110000000000007 2.9590000000000023 2.891000000000001 2.7950000000000026 L 1.758 2.555 L 1.758 1.664 L 5.172000000000001 1.734 L 11.672 1.734 C 12.969000000000001 1.734 15.156 1.5 15.156 1.5 C 15.156 1.5 15.078000000000001 2.875 14.992 6.125 L 14.101 6.125 L 13.773000000000001 4.984 C 13.453000000000001 3.5229999999999997 12.968000000000002 2.796 12.070000000000002 2.796 L 6.961 2.796 C 6.547 2.797 6.547 2.875 6.547 3.125 z M 19.703 3.766 L 20.68 3.766 L 20.68 7.18 L 24.016 7.016 L 23.851999999999997 8.563 L 20.601999999999997 8.313 L 20.601999999999997 14.329 C 20.601999999999997 16.032 21.171999999999997 16.688000000000002 22.148999999999997 16.688000000000002 C 23.031999999999996 16.688000000000002 23.688 16.196 23.929999999999996 15.790000000000003 L 24.413999999999994 16.360000000000003 C 23.929999999999993 17.493000000000002 22.554999999999993 18.063000000000002 21.249999999999993 18.063000000000002 C 19.632999999999992 18.063000000000002 18.319999999999993 17.094 18.319999999999993 15.227000000000002 L 18.319999999999993 8.398 L 16.381999999999994 8.398 L 16.381999999999994 7.586 C 18.008 7.422 19.219 6.445 19.703 3.766 z M 26.695 14.242 L 27.343 15.789000000000001 C 27.585 16.437 28.155 17.094 29.451999999999998 17.094 C 30.834999999999997 17.094 31.404999999999998 16.36 31.404999999999998 15.469000000000001 C 31.404999999999998 12.703000000000001 25.959999999999997 13.516000000000002 25.959999999999997 9.781000000000002 C 25.959999999999997 7.672000000000002 27.662999999999997 6.687000000000003 29.857999999999997 6.687000000000003 C 30.834999999999997 6.687000000000003 32.296 6.851000000000003 33.029999999999994 7.179000000000003 C 32.86599999999999 7.991000000000003 32.779999999999994 9.046000000000003 32.779999999999994 9.859000000000004 L 31.974999999999994 9.937000000000003 L 31.404999999999994 8.312000000000003 C 31.240999999999993 7.914000000000003 30.584999999999994 7.585000000000003 29.779999999999994 7.585000000000003 C 28.802999999999994 7.585000000000003 27.826999999999995 7.991000000000002 27.826999999999995 9.046000000000003 C 27.826999999999995 11.562000000000003 33.43599999999999 10.999000000000002 33.43599999999999 14.734000000000002 C 33.43599999999999 16.851000000000003 31.568999999999992 17.984 29.287999999999993 17.984 C 27.584999999999994 17.984 25.87399999999999 17.328000000000003 25.87399999999999 17.328000000000003 C 26.037999999999993 16.359 25.95999999999999 15.305000000000003 25.87399999999999 14.242000000000003 L 26.695 14.242000000000003 z M 33.031 22.039 C 33.272999999999996 21.148000000000003 33.437 20.016000000000002 33.601 18.953000000000003 L 34.492 18.875000000000004 L 34.82 20.578000000000003 C 34.898 20.984 35.14 21.312000000000005 35.789 21.312000000000005 C 36.844 21.312000000000005 38.227000000000004 20.664000000000005 39.531 18.390000000000004 C 38.952999999999996 17.007000000000005 37.25 12.546000000000003 35.702999999999996 9.132000000000005 C 35.297 8.234000000000005 35.218999999999994 8.155000000000005 34.656 7.991000000000005 L 34.242 7.835000000000005 L 34.242 7.015000000000005 L 36.687 7.101000000000005 L 39.687 6.937000000000006 L 39.687 7.75 L 38.952999999999996 7.914 C 38.382999999999996 7.992 38.147999999999996 8.312 38.147999999999996 8.641 C 38.147999999999996 8.727 38.147999999999996 8.805 38.226 8.969 C 38.382 9.460999999999999 39.687 13.11 40.664 15.547 C 41.469 13.844000000000001 43.016 10.024000000000001 43.258 9.375 C 43.344 9.047 43.422000000000004 8.969 43.422000000000004 8.727 C 43.422000000000004 8.313 43.18000000000001 8.071 42.617000000000004 7.915 L 42.039 7.75 L 42.039 6.938 L 44.32 7.016 L 46.429 6.938 L 46.429 7.75 L 46.023 8.07 C 45.211000000000006 8.398 45.125 8.476 44.804 9.132 L 41.234 17.491 C 39.117000000000004 22.288 36.922000000000004 22.694 35.382000000000005 22.694 C 34.406 22.695 33.672 22.445 33.031 22.039 z" stroke-linecap="round" />
</g>
<g transform="matrix(NaN NaN NaN NaN 0 0)"  >
<g style=""   >
</g>
</g>
<g transform="matrix(NaN NaN NaN NaN 0 0)"  >
<g style=""   >
</g>
</g>
</svg>